<?xml version="1.0" encoding="UTF-8" standalone="no"?>
<!-- Created with Inkscape (http://www.inkscape.org/) -->

<svg
   xmlns:dc="http://purl.org/dc/elements/1.1/"
   xmlns:cc="http://creativecommons.org/ns#"
   xmlns:rdf="http://www.w3.org/1999/02/22-rdf-syntax-ns#"
   xmlns:svg="http://www.w3.org/2000/svg"
   xmlns="http://www.w3.org/2000/svg"
   xmlns:sodipodi="http://sodipodi.sourceforge.net/DTD/sodipodi-0.dtd"
   xmlns:inkscape="http://www.inkscape.org/namespaces/inkscape"
   width="261"
   height="103"
   viewBox="0 0 69.056248 27.252084"
   version="1.1"
   id="svg8"
   inkscape:version="0.92.3 (2405546, 2018-03-11)"
   sodipodi:docname="high-peaks-logo-99-designs.svg">
  <defs
     id="defs2" />
  <sodipodi:namedview
     id="base"
     pagecolor="#ffffff"
     bordercolor="#666666"
     borderopacity="1.0"
     inkscape:pageopacity="0.0"
     inkscape:pageshadow="2"
     inkscape:zoom="1.4"
     inkscape:cx="308.5214"
     inkscape:cy="156.49772"
     inkscape:document-units="mm"
     inkscape:current-layer="layer1"
     showgrid="false"
     units="px"
     inkscape:window-width="1920"
     inkscape:window-height="1001"
     inkscape:window-x="-9"
     inkscape:window-y="-9"
     inkscape:window-maximized="1" />
  <metadata
     id="metadata5">
    <rdf:RDF>
      <cc:Work
         rdf:about="">
        <dc:format>image/svg+xml</dc:format>
        <dc:type
           rdf:resource="http://purl.org/dc/dcmitype/StillImage" />
        <dc:title></dc:title>
      </cc:Work>
    </rdf:RDF>
  </metadata>
  <g
     inkscape:label="Layer 1"
     inkscape:groupmode="layer"
     id="layer1"
     transform="translate(0,-269.7479)">
    <g
       id="g4604"
       transform="translate(-49.062299,104.26572)">
      <path
         style="fill:#5bccf6;fill-opacity:1;stroke-width:0.26458335"
         d="m 98.726899,185.4465 0.57512,-1.53128 0.59927,1.32292 c 0.910591,2.01018 1.452611,1.91487 0.0425,1.91487 -2.349415,0.0487 -2.08951,0.62871 -1.21689,-1.70651 z M 49.28199,182.2616 c -0.396862,-1.87126 -0.17957,-5.63838 0.422275,-7.32083 1.973763,-5.51762 7.078922,-9.14949 12.861044,-9.14949 7.57183,0 13.60395,6.05623 13.62214,13.67658 0.002,0.90091 -0.0854,1.69135 -0.19452,1.75652 -0.10914,0.0652 -2.15504,-2.07461 -4.54645,-4.75506 -3.47148,-3.89106 -4.41259,-4.80522 -4.66833,-4.53464 -0.17618,0.18639 -1.3444,1.51638 -2.59605,2.95553 l -2.27574,2.61663 0.52792,0.85418 c 0.29035,0.4698 0.52791,1.07506 0.52791,1.34502 0,0.34997 -0.53516,-0.0387 -1.8647,-1.35414 l -1.86469,-1.84499 -1.11355,1.19062 c -0.61246,0.65485 -1.737157,1.8982 -2.49934,2.76301 l -1.385784,1.57238 -0.799251,-0.76573 -0.799253,-0.76573 -1.393473,1.37616 c -0.766411,0.75689 -1.473632,1.37617 -1.571602,1.37617 -0.09797,0 -0.272819,-0.44649 -0.388556,-0.99219 z"
         id="path4590"
         inkscape:connector-curvature="0"
         sodipodi:nodetypes="ccsccssccsccccsccsscccsscs" />
      <path
         style="fill:#030e12;fill-opacity:1;stroke-width:0.26458335"
         d="m 58.382159,192.18315 c -1.641492,-0.52526 -3.157456,-1.34244 -3.157456,-1.70201 0,-0.12956 1.024789,-1.35197 2.277306,-2.71647 1.67217,-1.82166 2.52948,-2.55054 3.22627,-2.74293 0.52193,-0.14411 0.99989,-0.2111 1.06213,-0.14885 0.0622,0.0622 -0.20397,0.65432 -0.59159,1.31574 -0.38762,0.66142 -0.63429,1.20258 -0.54817,1.20258 0.27892,0 1.81299,-0.85155 3.2351,-1.79577 1.33804,-0.88842 1.38235,-0.95652 1.23239,-1.8943 -0.12379,-0.77417 -0.0152,-1.17952 0.53176,-1.98556 0.41714,-0.61469 0.69099,-1.38829 0.69668,-1.96807 0.005,-0.52539 0.17953,-1.25292 0.3875,-1.61672 0.20796,-0.3638 0.38234,-1.227 0.38749,-1.91823 0.005,-0.69122 0.10531,-1.25677 0.22256,-1.25677 0.47173,0 2.17223,1.48049 4.69825,4.0904 l 2.66246,2.75089 -1.16777,0.29404 c -0.93989,0.23667 -1.59793,0.73203 -3.37216,2.53851 -1.26578,1.28878 -2.63448,2.41896 -3.21449,2.65429 -0.55555,0.22541 -1.68435,1.08591 -2.50842,1.91221 -2.08597,2.09159 -3.78424,3.48933 -4.21913,3.47252 -0.20238,-0.008 -1.03069,-0.2263 -1.84071,-0.4855 z m 6.41159,-0.71266 c 1.02338,-1.42504 1.05357,-1.44798 2.58357,-1.96261 0.92471,-0.31104 1.32611,-0.64647 1.85584,-1.55083 1.01458,-1.73211 5.45161,-5.00647 6.01743,-4.44065 0.29902,0.29901 -1.38788,3.40262 -2.59444,4.77334 -1.90408,2.16314 -6.07425,4.39314 -8.21534,4.39314 -0.46258,0 -0.42498,-0.12917 0.35294,-1.21239 z m 15.83096,0.9478 c 0,-0.14552 0.40969,-0.26458 0.91043,-0.26458 0.99103,0 1.49132,-0.45071 0.90941,-0.81928 -0.20055,-0.12702 -0.68403,-0.23278 -1.0744,-0.235 -0.81975,-0.005 -1.24528,-0.85699 -0.7349,-1.47196 0.36171,-0.43584 2.63529,-0.53902 2.63529,-0.11959 0,0.14552 -0.47625,0.26458 -1.05833,0.26458 -0.76435,0 -1.05833,0.11024 -1.05833,0.39687 0,0.25829 0.2587,0.39688 0.74083,0.39688 0.40746,0 0.88371,0.14287 1.05833,0.3175 0.45362,0.45361 0.39223,1.44929 -0.10101,1.63857 -0.67138,0.25763 -2.22732,0.18499 -2.22732,-0.10399 z m 6.36223,0.0131 c -0.48343,-0.30581 -0.56228,-2.95149 -0.0928,-3.11349 0.21338,-0.0736 0.34252,0.34846 0.39688,1.29716 0.0746,1.30218 0.12954,1.4063 0.74202,1.4063 0.61141,0 0.66751,-0.10511 0.74144,-1.38906 0.0575,-0.99922 0.18747,-1.38906 0.46302,-1.38906 0.46098,0 0.54011,2.12256 0.10915,2.92781 -0.29537,0.55191 -1.66068,0.70255 -2.35971,0.26034 z m 5.8086,-1.46836 v -1.71979 h 0.90441 c 1.36515,0 1.74143,0.23279 1.74143,1.07734 0,0.80436 -0.60153,1.30391 -1.57011,1.30391 -0.37017,0 -0.54656,0.17078 -0.54656,0.52917 0,0.29104 -0.11906,0.52917 -0.26458,0.52917 -0.14925,0 -0.26459,-0.74966 -0.26459,-1.7198 z m 2.06766,-0.59531 c -0.053,-0.27926 -0.37567,-0.49625 -0.81315,-0.54674 -0.58373,-0.0674 -0.72534,0.023 -0.72534,0.46302 0,0.434 0.16768,0.54674 0.81315,0.54674 0.63149,0 0.79354,-0.10344 0.72534,-0.46302 z m 3.86134,1.95076 c -0.0769,-0.20039 -0.10293,-0.94453 -0.0578,-1.65365 0.0818,-1.28656 0.0841,-1.28947 1.09262,-1.37252 1.176481,-0.0969 1.767481,0.29256 1.767481,1.16464 0,0.66301 -0.67849,1.16754 -1.570111,1.16754 -0.37017,0 -0.54656,0.17078 -0.54656,0.52917 0,0.60134 -0.47432,0.71537 -0.68559,0.16482 z m 2.008511,-2.0169 c 0,-0.38806 -0.17639,-0.52917 -0.66146,-0.52917 -0.485071,0 -0.661461,0.14111 -0.661461,0.52917 0,0.38805 0.17639,0.52916 0.661461,0.52916 0.48507,0 0.66146,-0.14111 0.66146,-0.52916 z m 4.28625,2.06375 c -0.48578,-0.48578 -0.41875,-3.12209 0.0794,-3.12209 0.30467,0 0.39688,0.33808 0.39688,1.45521 0,1.37583 0.0361,1.45521 0.66145,1.45521 0.36381,0 0.66146,0.11906 0.66146,0.26458 0,0.37218 -1.41571,0.33054 -1.79916,-0.0529 z m 5.23875,-0.50156 c 0,-0.45048 -0.25112,-1.1717 -0.55803,-1.60273 -0.73425,-1.03115 -0.3652,-1.37146 0.42075,-0.38799 l 0.60904,0.7621 0.456,-0.69595 c 0.25081,-0.38278 0.6252,-0.69596 0.832,-0.69596 0.27222,0 0.19081,0.27251 -0.29502,0.98746 -0.36905,0.54311 -0.67099,1.31701 -0.67099,1.71979 0,0.47458 -0.13969,0.73234 -0.39688,0.73234 -0.26731,0 -0.39687,-0.2674 -0.39687,-0.81906 z m -58.905064,-4.93614 c -0.455954,-0.69095 -0.912612,-1.41018 -1.014794,-1.5983 -0.186187,-0.34279 1.531956,-2.70067 1.967924,-2.70067 0.121544,0 0.337415,0.33398 0.479716,0.74219 0.191804,0.5502 0.157855,0.93472 -0.131236,1.48647 -0.350886,0.66968 -0.342771,0.83192 0.08097,1.61876 0.392245,0.72836 0.413086,0.9442 0.124722,1.29166 -0.498774,0.60099 -0.589801,0.55025 -1.507307,-0.84011 z m 29.183533,0.28714 c -0.097,-0.097 -0.17639,-1.88295 -0.17639,-3.96875 v -3.79236 h 2.79847 c 2.74028,0 2.81457,0.0161 3.57188,0.7734 0.83806,0.83806 1.0149,1.98294 0.4656,3.0143 -0.53432,1.00322 -1.07982,1.22226 -3.06564,1.23097 l -1.91823,0.008 v 1.45521 c 0,1.42149 -0.0174,1.45521 -0.74965,1.45521 -0.41231,0 -0.82903,-0.0794 -0.92604,-0.17639 z m 4.42837,-4.4025 c 0.29049,-0.21241 0.43741,-0.5947 0.3813,-0.99219 -0.0831,-0.58902 -0.22681,-0.6537 -1.61262,-0.72598 l -1.52136,-0.0794 v 1.07154 1.07154 h 1.14006 c 0.62703,0 1.35271,-0.1555 1.61262,-0.34556 z m 5.1245,4.38994 c -1.35805,-0.20633 -1.79176,-1.16484 -1.79176,-3.9598 0,-2.29081 0.0519,-2.54181 0.64943,-3.13932 0.59379,-0.59379 0.85448,-0.64943 3.04271,-0.64943 h 2.39327 v 0.78262 0.78262 l -2.05052,0.0773 c -2.01841,0.0761 -2.05183,0.0887 -2.13424,0.80487 l -0.0837,0.72761 h 2.13424 c 2.10014,0 2.13424,0.0106 2.13424,0.66146 0,0.65043 -0.0353,0.66146 -2.11666,0.66146 -2.03231,0 -2.11667,0.0243 -2.11667,0.60854 0,0.98649 0.50317,1.24354 2.43417,1.24354 h 1.79916 v 0.79375 0.79375 l -1.78593,-0.0396 c -0.98227,-0.0218 -2.11074,-0.089 -2.50772,-0.14931 z m 5.09213,-0.14178 c 0.003,-0.1819 0.69058,-1.93807 1.52885,-3.9026 l 1.52413,-3.57188 h 1.03496 1.034961 l 1.53723,3.55329 c 0.84548,1.9543 1.53723,3.71802 1.53723,3.91936 0,0.25364 -0.26413,0.34062 -0.8599,0.28318 -0.83331,-0.0804 -0.89633,-0.17551 -2.03843,-3.07766 l -1.178531,-2.99475 -1.07314,2.73016 c -1.33661,3.40045 -1.33069,3.39163 -2.27395,3.39163 -0.44864,0 -0.77613,-0.14005 -0.77341,-0.33073 z m 8.991111,-3.63799 v -3.96875 h 0.79375 0.79375 l 0.008,1.78594 0.008,1.78593 0.58695,-0.66983 c 0.32283,-0.36841 1.0096,-1.18069 1.52616,-1.80507 0.84205,-1.0178 1.04149,-1.12641 1.92802,-1.04996 l 0.98882,0.0853 -1.465,1.7618 c -0.80575,0.96898 -1.465,1.81634 -1.465,1.883 0,0.0667 0.65417,0.94073 1.45373,1.94237 0.79955,1.00164 1.4544,1.91046 1.45521,2.0196 7.9e-4,0.10914 -0.44624,0.19844 -0.99344,0.19844 -0.92375,0 -1.09879,-0.13638 -2.44739,-1.90673 l -1.45249,-1.90672 -0.0777,1.90672 -0.0777,1.90673 h -0.78216 -0.78216 z m 7.32014,3.79236 c -0.097,-0.097 -0.17639,-0.44957 -0.17639,-0.78345 0,-0.58095 0.0996,-0.61035 2.3151,-0.68351 2.2816,-0.0753 2.31628,-0.0865 2.39587,-0.77336 0.0796,-0.68722 0.0543,-0.69842 -1.81784,-0.8042 -1.70043,-0.0961 -1.96727,-0.18713 -2.55658,-0.87224 -0.54301,-0.63129 -0.63282,-0.95262 -0.51394,-1.83893 0.23208,-1.73024 0.8406,-2.03772 3.85595,-1.94837 2.51197,0.0744 2.53915,0.0823 2.53915,0.7367 0,0.64323 -0.0619,0.6651 -2.24635,0.79375 -1.92976,0.11364 -2.2597,0.2024 -2.34114,0.62975 -0.1355,0.71114 0.40277,0.94908 2.15749,0.9537 1.88628,0.005 2.43784,0.27875 2.8024,1.39108 0.73646,2.2471 -0.63251,3.37439 -4.09862,3.37506 -1.17629,2.2e-4 -2.21809,-0.079 -2.3151,-0.17598 z m -56.532651,-4.19673 c 0,-0.24042 3.79503,-4.62117 4.00404,-4.62202 0.0922,-2.6e-4 0.23937,0.26722 0.32711,0.59464 0.36079,1.34628 0.19346,1.65626 -1.48688,2.75436 -1.63968,1.07154 -2.84427,1.61068 -2.84427,1.27302 z m 25.66459,-9.64978 v -3.96875 h 0.79375 0.79375 v 1.5875 1.5875 h 1.45521 1.45521 v -1.5875 -1.5875 h 0.92604 0.92604 v 3.96875 3.96875 h -0.92604 -0.92604 v -1.5875 -1.5875 h -1.45521 -1.45521 v 1.5875 1.5875 h -0.79375 -0.79375 z m 7.67292,0 v -3.96875 h 0.92604 0.92604 v 3.96875 3.96875 h -0.92604 -0.92604 z m 3.98733,3.23429 c -0.84071,-0.84071 -1.22189,-2.61962 -0.93872,-4.38086 0.36575,-2.27484 1.32005,-2.81809 4.95503,-2.8207 l 2.05053,-10e-4 v 0.79375 0.79375 h -2.19605 c -1.35525,0 -2.3176,0.12156 -2.51354,0.3175 -0.1828,0.1828 -0.3175,1.05833 -0.3175,2.06375 0,1.00542 0.1347,1.88095 0.3175,2.06375 0.17463,0.17463 0.889,0.3175 1.5875,0.3175 1.23472,0 1.27,-0.022 1.27,-0.79375 0,-0.73075 -0.0735,-0.79375 -0.92604,-0.79375 -0.85255,0 -0.92604,-0.063 -0.92604,-0.79375 v -0.79375 h 1.85208 1.85209 v 2.38125 2.38125 h -2.66619 c -2.56183,0 -2.69493,-0.0288 -3.40065,-0.73446 z m 7.12517,-3.23429 v -3.96875 h 0.926041 0.92604 v 1.5875 1.5875 h 1.45521 1.45521 v -1.5875 -1.5875 h 0.79375 0.79375 v 3.96875 3.96875 h -0.79375 -0.79375 v -1.5875 -1.5875 h -1.45521 -1.45521 v 1.5875 1.5875 h -0.92604 -0.926041 z"
         id="path4592"
         inkscape:connector-curvature="0"
         sodipodi:nodetypes="cscscssccccccsccccccccccccsscsscccssssccscccscsccscssssssccssccccsssccssssscssssccscsccscsssccscccscccscsccccssccccccccscccscsccccccssssscccccccsccccscccsscccccccccccsccscccccccccccccccsccccccccccsccccccccccccccccccccccccccccccccccccccccsssssssscccccscccccccccccccccccccccccccccc" />
    </g>
  </g>
</svg>
